<?xml version="1.0" encoding="UTF-8"?>
<!DOCTYPE svg PUBLIC "-//W3C//DTD SVG 1.1//EN" "http://www.w3.org/Graphics/SVG/1.1/DTD/svg11.dtd">
<svg xmlns="http://www.w3.org/2000/svg" version="1.1" width="2048px" height="2048px" style="shape-rendering:geometricPrecision; text-rendering:geometricPrecision; image-rendering:optimizeQuality; fill-rule:evenodd; clip-rule:evenodd" xmlns:xlink="http://www.w3.org/1999/xlink">
<g><path style="opacity:0.953" fill="#3b4252" d="M 121.5,-0.5 C 392.5,-0.5 663.5,-0.5 934.5,-0.5C 623.167,311.5 311.5,623.167 -0.5,934.5C -0.5,663.5 -0.5,392.5 -0.5,121.5C 2.13171,100.606 9.13171,81.2731 20.5,63.5C 21.9063,63.0269 22.573,62.0269 22.5,60.5C 23.9063,60.0269 24.573,59.0269 24.5,57.5C 29.7028,48.6257 36.3695,40.9591 44.5,34.5C 46.0269,34.573 47.0269,33.9063 47.5,32.5C 50.429,29.3637 53.7623,26.697 57.5,24.5C 59.0269,24.573 60.0269,23.9063 60.5,22.5C 62.0269,22.573 63.0269,21.9063 63.5,20.5C 81.2731,9.13171 100.606,2.13171 121.5,-0.5 Z"/></g>
<g><path style="opacity:0.918" fill="#4b5669" d="M 934.5,-0.5 C 935.5,-0.5 936.5,-0.5 937.5,-0.5C 625.167,312.5 312.5,625.167 -0.5,937.5C -0.5,936.5 -0.5,935.5 -0.5,934.5C 311.5,623.167 623.167,311.5 934.5,-0.5 Z"/></g>
<g><path style="opacity:0.953" fill="#3a4251" d="M 937.5,-0.5 C 945.833,-0.5 954.167,-0.5 962.5,-0.5C 641.833,320.833 320.833,641.833 -0.5,962.5C -0.5,954.167 -0.5,945.833 -0.5,937.5C 312.5,625.167 625.167,312.5 937.5,-0.5 Z"/></g>
<g><path style="opacity:0.918" fill="#4c566a" d="M 962.5,-0.5 C 1091.17,-0.5 1219.83,-0.5 1348.5,-0.5C 1149.5,199.501 950.167,398.501 750.5,596.5C 752.34,564.994 739.34,542.161 711.5,528C 676.124,517.012 648.291,526.845 628,557.5C 614.713,588.513 620.213,615.68 644.5,639C 658.634,649.704 674.634,654.538 692.5,653.5C 693.239,653.369 693.906,653.536 694.5,654C 683.965,664.368 673.631,674.868 663.5,685.5C 628.133,678.867 613.8,693.2 620.5,728.5C 413.5,935.167 206.5,1141.83 -0.5,1348.5C -0.5,1219.83 -0.5,1091.17 -0.5,962.5C 320.833,641.833 641.833,320.833 962.5,-0.5 Z"/></g>
<g><path style="opacity:0.882" fill="#5e81ac" d="M 1348.5,-0.5 C 1540.83,-0.5 1733.17,-0.5 1925.5,-0.5C 1979.75,7.55263 2017.58,36.886 2039,87.5C 2042.81,98.7389 2045.65,110.072 2047.5,121.5C 2047.5,383.167 2047.5,644.833 2047.5,906.5C 1666.83,1286.5 1286.5,1666.83 906.5,2047.5C 644.833,2047.5 383.167,2047.5 121.5,2047.5C 63.4455,2038.28 24.6122,2005.95 5,1950.5C 2.50788,1942.17 0.674543,1933.84 -0.5,1925.5C -0.5,1733.17 -0.5,1540.83 -0.5,1348.5C 206.5,1141.83 413.5,935.167 620.5,728.5C 620.007,894.535 620.507,1060.53 622,1226.5C 624.247,1231.71 628.08,1235.21 633.5,1237C 668.167,1237.67 702.833,1237.67 737.5,1237C 744.106,1234.73 748.273,1230.23 750,1223.5C 750.667,1048.83 750.667,874.167 750,699.5C 747.321,692.155 742.155,687.655 734.5,686C 710.836,685.5 687.169,685.333 663.5,685.5C 673.631,674.868 683.965,664.368 694.5,654C 693.906,653.536 693.239,653.369 692.5,653.5C 724.385,647.282 743.718,628.282 750.5,596.5C 950.167,398.501 1149.5,199.501 1348.5,-0.5 Z"/></g>
<g><path style="opacity:0.918" fill="#494d8d" d="M 63.5,20.5 C 63.0269,21.9063 62.0269,22.573 60.5,22.5C 60.9731,21.0937 61.9731,20.427 63.5,20.5 Z"/></g>
<g><path style="opacity:0.918" fill="#494d8d" d="M 60.5,22.5 C 60.0269,23.9063 59.0269,24.573 57.5,24.5C 57.9731,23.0937 58.9731,22.427 60.5,22.5 Z"/></g>
<g><path style="opacity:0.847" fill="#454987" d="M 47.5,32.5 C 47.0269,33.9063 46.0269,34.573 44.5,34.5C 44.9731,33.0937 45.9731,32.427 47.5,32.5 Z"/></g>
<g><path style="opacity:0.918" fill="#494d8d" d="M 24.5,57.5 C 24.573,59.0269 23.9063,60.0269 22.5,60.5C 22.427,58.9731 23.0937,57.9731 24.5,57.5 Z"/></g>
<g><path style="opacity:0.918" fill="#494d8d" d="M 22.5,60.5 C 22.573,62.0269 21.9063,63.0269 20.5,63.5C 20.427,61.9731 21.0937,60.9731 22.5,60.5 Z"/></g>
<g><path style="opacity:1" fill="#ebeef3" d="M 750.5,596.5 C 743.718,628.282 724.385,647.282 692.5,653.5C 674.634,654.538 658.634,649.704 644.5,639C 620.213,615.68 614.713,588.513 628,557.5C 648.291,526.845 676.124,517.012 711.5,528C 739.34,542.161 752.34,564.994 750.5,596.5 Z"/></g>
<g><path style="opacity:1" fill="#ebeef3" d="M 1408.5,808.5 C 1383.82,808.167 1359.16,808.5 1334.5,809.5C 1334.62,810.107 1334.96,810.44 1335.5,810.5C 1379.35,886.034 1387.52,965.367 1360,1048.5C 1325.58,1137.26 1262.75,1195.09 1171.5,1222C 1062.64,1246.6 969.81,1218.76 893,1138.5C 833.723,1067.74 812.723,986.736 830,895.5C 852.27,804.74 905.77,739.907 990.5,701C 1025.52,686.358 1062.02,678.858 1100,678.5C 1203.36,678.372 1306.86,678.539 1410.5,679C 1419,680.833 1424.17,686 1426,694.5C 1426.67,727.5 1426.67,760.5 1426,793.5C 1423.44,802.358 1417.61,807.358 1408.5,808.5 Z"/></g>
<g><path style="opacity:1" fill="#ebeef3" d="M 663.5,685.5 C 687.169,685.333 710.836,685.5 734.5,686C 742.155,687.655 747.321,692.155 750,699.5C 750.667,874.167 750.667,1048.83 750,1223.5C 748.273,1230.23 744.106,1234.73 737.5,1237C 702.833,1237.67 668.167,1237.67 633.5,1237C 628.08,1235.21 624.247,1231.71 622,1226.5C 620.507,1060.53 620.007,894.535 620.5,728.5C 613.8,693.2 628.133,678.867 663.5,685.5 Z"/></g>
<g><path style="opacity:1" fill="#81a1c1" d="M 1408.5,808.5 C 1384.17,809.167 1359.83,809.833 1335.5,810.5C 1334.96,810.44 1334.62,810.107 1334.5,809.5C 1359.16,808.5 1383.82,808.167 1408.5,808.5 Z"/></g>
<g><path style="opacity:0.882" fill="#5e81ac" d="M 1090.5,808.5 C 1151.11,807.709 1196.94,833.042 1228,884.5C 1246.74,920.169 1250.74,957.503 1240,996.5C 1223.83,1046 1191,1078.83 1141.5,1095C 1081.16,1110.3 1030,1095.13 988,1049.5C 955.626,1008.3 946.293,962.299 960,911.5C 982.54,850.446 1026.04,816.113 1090.5,808.5 Z"/></g>
<g><path style="opacity:1" fill="#80a1c0" d="M 2047.5,906.5 C 2047.5,1246.17 2047.5,1585.83 2047.5,1925.5C 2035.17,1994.5 1994.5,2035.17 1925.5,2047.5C 1585.83,2047.5 1246.17,2047.5 906.5,2047.5C 1286.5,1666.83 1666.83,1286.5 2047.5,906.5 Z"/></g>
<g><path style="opacity:1" fill="#ebeef3" d="M 1076.5,1257.5 C 1174.72,1252.21 1253.22,1288.54 1312,1366.5C 1339.06,1405.98 1354.89,1449.65 1359.5,1497.5C 1358.05,1508.78 1351.72,1515.28 1340.5,1517C 1307.46,1517.96 1274.46,1517.63 1241.5,1516C 1236.79,1514.62 1233.29,1511.79 1231,1507.5C 1224.87,1464.02 1203.7,1430.19 1167.5,1406C 1131.46,1385.57 1093.79,1381.91 1054.5,1395C 1005.41,1416.34 976.909,1453.5 969,1506.5C 965.511,1513.16 960.011,1516.66 952.5,1517C 921.5,1517.67 890.5,1517.67 859.5,1517C 847.835,1515.17 841.501,1508.33 840.5,1496.5C 850.363,1405.54 894.363,1336.71 972.5,1290C 1005.11,1272.18 1039.77,1261.35 1076.5,1257.5 Z"/></g>
</svg>
